<?xml version="1.0" encoding="UTF-8" standalone="no"?>
<!DOCTYPE svg PUBLIC "-//W3C//DTD SVG 1.1//EN" "http://www.w3.org/Graphics/SVG/1.1/DTD/svg11.dtd">
<svg version="1.1" xmlns="http://www.w3.org/2000/svg" xmlns:xlink="http://www.w3.org/1999/xlink" preserveAspectRatio="xMidYMid meet" viewBox="0 0 128 128" width="128" height="128"><defs><path d="M125.66 97.63L7.49 97.63L85.96 26.37L125.66 26.37L125.66 97.63Z" id="e6z75ZCptw"></path><path d="M46.72 97.63L125.66 26.37" id="a16gI0sTqL"></path><path d="" id="e3gwDEzrTt"></path><path d="M88.42 64.57L89.75 66.46L91.01 68.4L92.19 70.4L93.3 72.44L94.33 74.52L95.28 76.65L96.15 78.83L96.94 81.04L97.64 83.3L98.25 85.59L98.78 87.91L99.21 90.27L99.56 92.66L99.8 95.08L99.95 97.53L100 100L40 100L84.4 59.67L85.55 60.96L87.02 62.74L87.02 62.74L88.42 64.57Z" id="c6ZmtBup6z"></path></defs><g><g><g><g><g><use xlink:href="#e6z75ZCptw" opacity="1" fill-opacity="0" stroke="#000000" stroke-width="5" stroke-opacity="1"></use></g></g><g><g><use xlink:href="#a16gI0sTqL" opacity="1" fill-opacity="0" stroke="#000000" stroke-width="5" stroke-opacity="1"></use></g></g></g><g><g><use xlink:href="#e3gwDEzrTt" opacity="1" fill-opacity="0" stroke="#000000" stroke-width="5" stroke-opacity="1"></use></g></g><g><use xlink:href="#c6ZmtBup6z" opacity="1" fill="#ff0000" fill-opacity="1"></use></g></g></g></svg>